The Blues Brothers (1980) Collector's Edition

Director: John Landis

The Blues Brothers is a 1980 American musical comedy film directed by John Landis and starring John Belushi and Dan Aykroyd as "Joliet" Jake and Elwood Blues, characters developed from a musical sketch on the NBC variety series Saturday Night Live. It features musical numbers by R&B and soul singers James Brown, Cab Calloway, Aretha Franklin, Ray Charles, and John Lee Hooker. The film is set in and around Chicago, Illinois, and also features non-musical supporting performances by John Candy, Carrie Fisher, Charles Napier, and Henry Gibson.

The story is a tale of redemption for paroled convict Jake (Belushi) and his brother Elwood (Aykroyd), who take on "a mission from God" to save from foreclosure the Catholic orphanage in which they grew up. To do so they must reunite their rhythm and blues band, The Blues Brothers, and organize a performance to earn $5,000 to pay the tax assessor. Along the way they are targeted by a destructive "mystery woman", Nazis, and a country and western band—all while being relentlessly pursued by the police.

Released in the United States on June 20, 1980, it received generally good reviews with 84% of reviews positive according to the review aggregator website Rotten Tomatoes. It earned just under $5 million in its opening weekend and went on to gross more than $115 million in theaters worldwide before its release on home video.

Much of the film was shot on location in and around Chicago, Illinois between July and October 1979. Made with the cooperation of Mayor Jane M. Byrne, it is credited for putting Chicago on the map as a venue for filmmaking. Nearly 200 movies have been filmed in Chicago. "Chicago is one of the stars of the movie. We wrote it as a tribute," Dan Aykroyd told the Chicago Sun-Times in an article written to mark the film's 25th anniversary DVD release.

Media Info:
General
Complete name                    : J:\Seeding\The Blues Brothers (1980)[DVDRip][big_dad_e™]\The Blues Brothers (1980)[DVDRip][big_dad_e™].avi
Format                           : AVI
Format/Info                      : Audio Video Interleave
Format profile                   : OpenDML
File size                        : 3.02 GiB
Duration                         : 2h 27mn
Overall bit rate                 : 2 931 Kbps
Writing application              : Lavf51.12.1

Video
ID                               : 0
Format                           : MPEG-4 Visual
Format profile                   : Simple@L1
Format settings, BVOP            : No
Format settings, QPel            : No
Format settings, GMC             : No warppoints
Format settings, Matrix          : Default (H.263)
Codec ID                         : DX50
Codec ID/Hint                    : DivX 5
Duration                         : 2h 27mn
Bit rate                         : 2 600 Kbps
Width                            : 852 pixels
Height                           : 480 pixels
Display aspect ratio             : 16:9
Frame rate                       : 23.976 fps
Color space                      : YUV
Chroma subsampling               : 4:2:0
Bit depth                        : 8 bits
Scan type                        : Progressive
Bits/(Pixel*Frame)               : 0.265
Stream size                      : 2.68 GiB (89%)
Writing library                  : Lavc51.40.4

Audio
ID                               : 1
Format                           : MPEG Audio
Format version                   : Version 1
Format profile                   : Layer 3
Mode                             : Joint stereo
Mode extension                   : MS Stereo
Codec ID                         : 55
Codec ID/Hint                    : MP3
Duration                         : 2h 27mn
Bit rate mode                    : Constant
Bit rate                         : 320 Kbps
Channel(s)                       : 2 channels
Sampling rate                    : 44.1 KHz
Stream size                      : 338 MiB (11%)
Alignment                        : Aligned on interleaves
Interleave, duration             : 26 ms (0.63 video frame)
Writing library                  : LAME3.97

File Scan:
Malwarebytes' Anti-Malware 1.50
www.malwarebytes.org

Database version: 5235

Windows 5.1.2600 Service Pack 3
Internet Explorer 8.0.6001.18702

12/2/2010 8:04:18 PM
mbam-log-2010-12-02 (20-04-18).txt

Scan type: Quick scan
Objects scanned: 6
Time elapsed: 27 second(s)

Memory Processes Infected: 0
Memory Modules Infected: 0
Registry Keys Infected: 0
Registry Values Infected: 0
Registry Data Items Infected: 0
Folders Infected: 0
Files Infected: 0

Memory Processes Infected:
(No malicious items detected)

Memory Modules Infected:
(No malicious items detected)

Registry Keys Infected:
(No malicious items detected)

Registry Values Infected:
(No malicious items detected)

Registry Data Items Infected:
(No malicious items detected)

Folders Infected:
(No malicious items detected)

Files Infected:
(No malicious items detected)

When using TPB please read these important notes:
  
01- Anti-malware apps may warn about keygens, patches, cracks, etc., because of 
    their capabilities, (generating codes, etc.). Sometimes they're added to 
    the virus/spyware database and will be detected as malware. If you don't trust
    the keygens, patches, cracks, etc., don't use them. 
    
02- Before running .exe-files, keygens, patches, cracks, etc., always check first 
    if they can be unpacked. Often some third party added a virus to the 
    original file, repacked it and uploaded it again.

03- Letting anti-malware apps send scan results to their companies can cause
    keygens, patches, cracks, etc., to be added to their virus-database.

04- Firewalls which are set to automatically determine connections will allow 
    apps & malware!. Avoid this by manually configuring your firewall.

05- Usually (new) torrents with many downloads and seeders in a brief period is
    suspicious! Torrents with the Skull & Crossbones icon are trusted.

06- Some people use multiple accounts and post fake comments 
    and/or files trying to spread confusion. They seldom seriously
    comment or have any torrents, or a just a few to look passable.

07- Clicking on unknown links can cause malware to be installed on your machine.
  
08- In general often there are more fake and negative comments than reliable and
    positive comments.

09- In some countries uploading/downloading copyright protected material is 
    forbidden, but showing some appreciation to reliable up-loaders is not.

10- Posting fake and negative comments or fake/infected uploads on TPB can result
    in getting banned from TPB!

Requests?  Find me on SuprBay.
 

For reporting bad or suspicious torrents:  
http://forum.suprbay.org/forumdisplay.php?fid=29

For more of my torrents: 
https://thepiratebay.org/user/big_dad_e/  (Secured)

All torrents scanned with:
Norton Anti-virus
Malwarebytes' Anti-malware
 
http://www.pirate-party.us/

ALWAYS SEED & THANKS SEEDERS!